<svg xmlns="http://www.w3.org/2000/svg" xmlns:xlink="http://www.w3.org/1999/xlink" width="43" height="44" viewBox="0 0 43 44">
  <defs>
    <clipPath id="clip-path">
      <ellipse id="Elipse_57" data-name="Elipse 57" cx="21.5" cy="22" rx="21.5" ry="22" transform="translate(-0.211 0.317)" fill="#fff" stroke="#1558d6" stroke-width="1"/>
    </clipPath>
  </defs>
  <g id="Grupo_479" data-name="Grupo 479" transform="translate(-84 -552)">
    <g id="Elipse_52" data-name="Elipse 52" transform="translate(84 552)" fill="#fff" stroke="#1558d6" stroke-width="1">
      <ellipse cx="21.5" cy="22" rx="21.5" ry="22" stroke="none"/>
      <ellipse cx="21.5" cy="22" rx="21" ry="21.5" fill="none"/>
    </g>
    <g id="Enmascarar_grupo_44" data-name="Enmascarar grupo 44" transform="translate(84.211 551.684)" clip-path="url(#clip-path)">
      <g id="Page-1" transform="translate(7.354 7.376)">
        <g id="_001---Degree" data-name="001---Degree" transform="translate(0 0)">
          <path id="Shape" d="M27.858,4.8,14.568.056a.974.974,0,0,0-.649,0L.633,4.8a.95.95,0,0,0,0,1.787L7.124,8.91v2.96c0,1.846,6.393,1.9,7.122,1.9s7.122-.053,7.122-1.9V8.91L22.792,8.4V9.5a.95.95,0,0,0,.95.95h.95a.95.95,0,0,0,.95-.95V8.072a1.4,1.4,0,0,0-.155-.632l2.374-.849a.95.95,0,0,0,0-1.787Zm-7.44,6.021C18.61,10,14.8,9.971,14.246,9.971s-4.364.031-6.172.855V6.689C8.358,6.324,10.6,5.7,14.246,5.7s5.887.626,6.172.991ZM14.246,12.82c-3.513,0-5.72-.58-6.132-.95.413-.369,2.62-.95,6.132-.95s5.72.58,6.132.95C19.966,12.239,17.759,12.82,14.246,12.82Zm8.769-5.505L21.368,7.9V6.647c0-1.846-6.393-1.9-7.122-1.9s-7.122.053-7.122,1.9V7.9L.951,5.7,14.252.95l9.489,3.391V6.735A1.427,1.427,0,0,0,23.015,7.314ZM24.691,9.5h-.95V8.072a.475.475,0,0,1,.95,0Zm0-2.78V4.68L27.54,5.7Z" transform="translate(-0.002 -0.001)" fill="#1558d6"/>
          <path id="Shape-2" data-name="Shape" d="M27.063,21.7a.464.464,0,0,0-.085.008,79.5,79.5,0,0,1-12.734.942,79.5,79.5,0,0,1-12.734-.942.535.535,0,0,0-.085-.008C1.092,21.7,0,22.077,0,26.923s1.092,5.223,1.424,5.223a.54.54,0,0,0,.085-.009,74.258,74.258,0,0,1,9.781-.892l-.927,2.223a.946.946,0,0,0,1.255,1.219l.363-.155.157.361a.944.944,0,0,0,.873.576h.012a.946.946,0,0,0,.87-.593l.825-1.974.822,1.967a.95.95,0,0,0,.873.6h.014a.943.943,0,0,0,.87-.57l.159-.364.358.153a.946.946,0,0,0,1.258-1.224l-.909-2.179a72.392,72.392,0,0,1,8.818.855.464.464,0,0,0,.083.006c.332,0,1.424-.377,1.424-5.223S27.4,21.7,27.063,21.7Zm-11.3,1.885a10,10,0,0,1,.342,2.221,3.3,3.3,0,0,0-3.305.307,12.827,12.827,0,0,0-.326-2.532q.863.018,1.77.018C14.763,23.6,15.267,23.593,15.763,23.585ZM14.719,31.2a2.374,2.374,0,1,1,2.374-2.374A2.374,2.374,0,0,1,14.719,31.2ZM1.424,22.887A13.316,13.316,0,0,1,1.9,26.923a13.316,13.316,0,0,1-.475,4.036A13.316,13.316,0,0,1,.95,26.923,13.317,13.317,0,0,1,1.424,22.887Zm.959,8.152a13.259,13.259,0,0,0,.465-4.116,13.252,13.252,0,0,0-.466-4.117,83.3,83.3,0,0,0,9.1.752,12.222,12.222,0,0,1,.387,3.366c0,.069,0,.134,0,.2a3.289,3.289,0,0,0-.153,3.111l-.021.05a82.691,82.691,0,0,0-9.31.756Zm10.629,3.48-.347-.8a.475.475,0,0,0-.622-.247l-.8.353,1.113-2.669a3.32,3.32,0,0,0,1.677.916Zm4.381-1.045a.475.475,0,0,0-.622.247l-.351.79L15.4,32.074a3.324,3.324,0,0,0,1.678-.917l1.111,2.659Zm9.575-2.3a76.894,76.894,0,0,0-9.211-.855l-.034-.082a3.3,3.3,0,0,0-.64-3.744,13.215,13.215,0,0,0-.339-2.925,79.255,79.255,0,0,0,10.224-.894,11.2,11.2,0,0,1,.57,4.25,11.249,11.249,0,0,1-.57,4.249Z" transform="translate(0 -6.982)" fill="#1558d6"/>
        </g>
      </g>
    </g>
  </g>
</svg>
