<svg xmlns="http://www.w3.org/2000/svg" xmlns:xlink="http://www.w3.org/1999/xlink" width="44" height="44" viewBox="0 0 44 44">
  <defs>
    <clipPath id="clip-path">
      <circle id="Elipse_72" data-name="Elipse 72" cx="22" cy="22" r="22" transform="translate(84 552)" fill="#fff" stroke="#1558d6" stroke-width="1"/>
    </clipPath>
    <clipPath id="clip-path-2">
      <circle id="Elipse_68" data-name="Elipse 68" cx="21" cy="21" r="21" transform="translate(-0.041 -0.081)" fill="#fff" stroke="#1558d6" stroke-width="1"/>
    </clipPath>
  </defs>
  <g id="Enmascarar_grupo_54" data-name="Enmascarar grupo 54" transform="translate(-84 -552)" clip-path="url(#clip-path)">
    <g id="Elipse_52" data-name="Elipse 52" transform="translate(84 552)" fill="#1558d6" stroke="#1558d6" stroke-width="1">
      <ellipse cx="21.5" cy="22" rx="21.5" ry="22" stroke="none"/>
      <ellipse cx="21.5" cy="22" rx="21" ry="21.5" fill="none"/>
    </g>
    <g id="Enmascarar_grupo_48" data-name="Enmascarar grupo 48" transform="translate(85.041 553.082)" clip-path="url(#clip-path-2)">
      <g id="Page-1" transform="translate(7.185 7.193)">
        <g id="_001---Degree" data-name="001---Degree" transform="translate(0 0)">
          <path id="Shape" d="M27.034,4.662,14.137.055a.945.945,0,0,0-.629,0L.615,4.662a.922.922,0,0,0,0,1.734l6.3,2.25v2.873c0,1.791,6.2,1.843,6.911,1.843s6.911-.052,6.911-1.843V8.646l1.382-.491v1.06a.922.922,0,0,0,.922.922h.922a.922.922,0,0,0,.921-.922V7.833a1.363,1.363,0,0,0-.15-.613l2.3-.824a.922.922,0,0,0,0-1.734Zm-7.22,5.843c-1.755-.8-5.453-.829-5.99-.829s-4.235.03-5.99.829V6.491c.276-.355,2.449-.962,5.99-.962s5.713.607,5.99.962Zm-5.99,1.935c-3.41,0-5.551-.563-5.951-.922.4-.358,2.542-.922,5.951-.922s5.551.563,5.951.922C19.375,11.878,17.234,12.441,13.825,12.441ZM22.334,7.1l-1.6.57V6.451c0-1.791-6.2-1.843-6.911-1.843s-6.911.052-6.911,1.843V7.668L.923,5.529,13.831.922,23.04,4.212V6.536a1.385,1.385,0,0,0-.705.563Zm1.627,2.117H23.04V7.833a.461.461,0,1,1,.922,0Zm0-2.7V4.542l2.765.987Z" transform="translate(-0.002 -0.001)" fill="#fff"/>
          <path id="Shape-2" data-name="Shape" d="M26.263,21.7a.45.45,0,0,0-.082.007,77.148,77.148,0,0,1-12.358.914,77.148,77.148,0,0,1-12.358-.914.52.52,0,0,0-.082-.007C1.06,21.7,0,22.065,0,26.768s1.06,5.068,1.382,5.068a.525.525,0,0,0,.082-.008,72.062,72.062,0,0,1,9.491-.865l-.9,2.157A.918.918,0,0,0,11.275,34.3l.352-.151.153.351a.916.916,0,0,0,.847.559h.012a.918.918,0,0,0,.845-.575l.8-1.916.8,1.908a.922.922,0,0,0,.847.582h.014a.915.915,0,0,0,.844-.553l.154-.353.347.149a.918.918,0,0,0,1.221-1.188L17.626,31a70.25,70.25,0,0,1,8.557.829.45.45,0,0,0,.08.006c.323,0,1.382-.365,1.382-5.068S26.585,21.7,26.263,21.7ZM15.3,23.529a9.7,9.7,0,0,1,.332,2.155,3.2,3.2,0,0,0-3.207.3,12.448,12.448,0,0,0-.317-2.457q.837.018,1.717.018C14.326,23.543,14.815,23.537,15.3,23.529Zm-1.014,7.386a2.3,2.3,0,1,1,2.3-2.3A2.3,2.3,0,0,1,14.283,30.915Zm-12.9-8.063a12.923,12.923,0,0,1,.461,3.916,12.923,12.923,0,0,1-.461,3.916,12.923,12.923,0,0,1-.461-3.916A12.923,12.923,0,0,1,1.382,22.852Zm.931,7.911a12.867,12.867,0,0,0,.452-3.995,12.86,12.86,0,0,0-.452-4,80.84,80.84,0,0,0,8.83.729,11.861,11.861,0,0,1,.376,3.266c0,.067,0,.13,0,.194a3.192,3.192,0,0,0-.148,3.019l-.02.049a80.247,80.247,0,0,0-9.034.734ZM12.628,34.14l-.336-.774a.461.461,0,0,0-.6-.24l-.775.343,1.08-2.59a3.222,3.222,0,0,0,1.627.889Zm4.251-1.014a.461.461,0,0,0-.6.24l-.341.766-.988-2.365a3.225,3.225,0,0,0,1.629-.89l1.078,2.58Zm9.292-2.235a74.618,74.618,0,0,0-8.939-.829l-.033-.079a3.206,3.206,0,0,0-.621-3.633,12.824,12.824,0,0,0-.329-2.839,76.91,76.91,0,0,0,9.921-.867,10.869,10.869,0,0,1,.553,4.124,10.917,10.917,0,0,1-.553,4.124Z" transform="translate(0 -7.417)" fill="#fff"/>
        </g>
      </g>
    </g>
  </g>
</svg>
