<svg xmlns="http://www.w3.org/2000/svg" xmlns:xlink="http://www.w3.org/1999/xlink" width="44" height="44" viewBox="0 0 44 44">
  <defs>
    <clipPath id="clip-path">
      <circle id="Elipse_74" data-name="Elipse 74" cx="22" cy="22" r="22" transform="translate(205 554)" fill="#fff" stroke="#1558d6" stroke-width="1"/>
    </clipPath>
    <clipPath id="clip-path-2">
      <ellipse id="Elipse_69" data-name="Elipse 69" cx="21.5" cy="22" rx="21.5" ry="22" transform="translate(205 591)" fill="#fff" stroke="#1558d6" stroke-width="1"/>
    </clipPath>
  </defs>
  <g id="Enmascarar_grupo_56" data-name="Enmascarar grupo 56" transform="translate(-205 -554)" clip-path="url(#clip-path)">
    <g id="Elipse_56" data-name="Elipse 56" transform="translate(205 554)" fill="#1558d6" stroke="#1558d6" stroke-width="1">
      <circle cx="22" cy="22" r="22" stroke="none"/>
      <circle cx="22" cy="22" r="21.5" fill="none"/>
    </g>
    <g id="Enmascarar_grupo_49" data-name="Enmascarar grupo 49" transform="translate(0 -38)" clip-path="url(#clip-path-2)">
      <g id="galeria" transform="translate(211.245 600.547)">
        <path id="Trazado_345" data-name="Trazado 345" d="M27.977,5.043h-.262a2.827,2.827,0,0,0-2.529-2.48A2.826,2.826,0,0,0,22.38.042H4.371A4.376,4.376,0,0,0,0,4.413V17.04a2.826,2.826,0,0,0,2.549,2.809,2.826,2.826,0,0,0,2.76,2.519,2.529,2.529,0,0,0,2.532,2.5H27.977a2.536,2.536,0,0,0,2.533-2.533V7.576a2.536,2.536,0,0,0-2.533-2.533Zm1.341,2.533v9.757l-2.592-1.958a1.989,1.989,0,0,0-2.384-.021l-3.279,2.389L14.81,11.3a2,2,0,0,0-2.759-.107L6.5,16.087V7.576A1.343,1.343,0,0,1,7.841,6.234H27.977a1.343,1.343,0,0,1,1.341,1.341Zm0,14.754a1.343,1.343,0,0,1-1.341,1.341H7.841A1.341,1.341,0,0,1,6.5,22.331V17.676l6.34-5.593a.807.807,0,0,1,1.115.043l2.822,2.91h0l5.617,5.791A.6.6,0,1,0,23.25,20L21.9,18.608l3.143-2.29a.8.8,0,0,1,.963.008l3.311,2.5ZM3.724,19.547V5.477A1.717,1.717,0,0,1,3.733,5.3,1.739,1.739,0,0,1,5.461,3.741H12.75a.6.6,0,1,0,0-1.192H5.461A2.932,2.932,0,0,0,2.533,5.477V18.645A1.633,1.633,0,0,1,1.192,17.04V4.413A3.183,3.183,0,0,1,4.371,1.234H22.38a1.633,1.633,0,0,1,1.6,1.315H17.517a.6.6,0,1,0,0,1.192h7.4a1.633,1.633,0,0,1,1.6,1.3H7.841A2.536,2.536,0,0,0,5.308,7.576v9.831h0v3.769a1.632,1.632,0,0,1-1.583-1.63Zm0,0" fill="#fff"/>
        <path id="Trazado_346" data-name="Trazado 346" d="M31.585,12.188a2.55,2.55,0,1,0,2.55,2.55A2.553,2.553,0,0,0,31.585,12.188Zm0,3.909a1.358,1.358,0,1,1,1.358-1.358A1.36,1.36,0,0,1,31.585,16.1Zm0,0" transform="translate(-8.434 -3.528)" fill="#fff"/>
        <path id="Trazado_347" data-name="Trazado 347" d="M20.535,4.4a.611.611,0,0,0,.055.1.59.59,0,0,0,.074.091.624.624,0,0,0,.091.074.607.607,0,0,0,.1.055.6.6,0,0,0,.345.034.6.6,0,0,0,.214-.089.637.637,0,0,0,.091-.074.593.593,0,0,0,.074-.091.611.611,0,0,0,.055-.1.624.624,0,0,0,.034-.111.6.6,0,0,0,.011-.117.6.6,0,0,0-.1-.331.582.582,0,0,0-.074-.091.59.59,0,0,0-.091-.074.6.6,0,0,0-.214-.089.586.586,0,0,0-.233,0,.593.593,0,0,0-.111.034.607.607,0,0,0-.1.055.585.585,0,0,0-.165.165.6.6,0,0,0-.1.331.605.605,0,0,0,.012.117A.625.625,0,0,0,20.535,4.4Zm0,0" transform="translate(-5.951 -1.026)" fill="#fff"/>
      </g>
    </g>
  </g>
</svg>
