<svg xmlns="http://www.w3.org/2000/svg" width="64.769" height="69.491" viewBox="0 0 64.769 69.491">
  <g id="Grupo_473" data-name="Grupo 473" transform="translate(-446.231 -94.509)">
    <g id="Grupo_189" data-name="Grupo 189" transform="translate(446.231 94.509)">
      <g id="latido-del-corazon" transform="translate(0 0)">
        <g id="Grupo_184" data-name="Grupo 184" transform="translate(42.469 37.237)">
          <g id="Grupo_183" data-name="Grupo 183">
            <path id="Trazado_274" data-name="Trazado 274" d="M72.027,71.355a1.265,1.265,0,0,0-1.789.018l-.036.037A1.265,1.265,0,0,0,72.01,73.18l.036-.037A1.265,1.265,0,0,0,72.027,71.355Z" transform="translate(-69.841 -70.993)" fill="#00a3c8"/>
          </g>
        </g>
        <g id="Grupo_186" data-name="Grupo 186" transform="translate(47.745 19.709)">
          <g id="Grupo_185" data-name="Grupo 185">
            <path id="Trazado_275" data-name="Trazado 275" d="M89.036,46.8H85.674V43.434a1.265,1.265,0,0,0-2.53,0V46.8H79.782a1.265,1.265,0,0,0,0,2.53h3.362v3.362a1.265,1.265,0,1,0,2.53,0V49.326h3.362a1.265,1.265,0,1,0,0-2.53Z" transform="translate(-78.517 -42.169)" fill="#00a3c8"/>
          </g>
        </g>
        <g id="Grupo_188" data-name="Grupo 188">
          <g id="Grupo_187" data-name="Grupo 187">
            <path id="Trazado_276" data-name="Trazado 276" d="M57.773,25.023A17.435,17.435,0,0,0,40.626,9.757a16.908,16.908,0,0,0-11.657,4.619A16.908,16.908,0,0,0,17.312,9.757,17.542,17.542,0,0,0,0,27.481a15.514,15.514,0,0,0,1.684,6.484H1.265a1.265,1.265,0,1,0,0,2.53H3.031A71.661,71.661,0,0,0,14.225,50.11,163.056,163.056,0,0,0,28.2,62.4a1.265,1.265,0,0,0,1.537,0c.053-.041,5.408-4.147,11.342-9.742a1.265,1.265,0,1,0-1.736-1.841c-4.525,4.267-8.7,7.65-10.375,8.972A162.161,162.161,0,0,1,15.991,48.3,75.246,75.246,0,0,1,6,36.5H17.329a1.265,1.265,0,0,0,1.216-.916l2.21-7.7,6.121,19.61a1.265,1.265,0,0,0,2.415,0l3.39-10.863h5.648a1.265,1.265,0,1,0,0-2.53H31.75a1.265,1.265,0,0,0-1.208.888l-2.459,7.882L21.911,23.089a1.265,1.265,0,0,0-2.424.028L16.375,33.965H4.507A14.386,14.386,0,0,1,2.53,27.481,15.009,15.009,0,0,1,17.312,12.287a14.464,14.464,0,0,1,10.727,4.742,1.265,1.265,0,0,0,1.86,0,14.464,14.464,0,0,1,10.727-4.742A14.874,14.874,0,0,1,55.088,24.32a11.135,11.135,0,1,0,2.684.7ZM53.637,43.96a8.6,8.6,0,1,1,8.6-8.6A8.612,8.612,0,0,1,53.637,43.96Z" transform="translate(0 -9.757)" fill="#00a3c8"/>
          </g>
        </g>
      </g>
      <text id="LOGO" transform="translate(11.769 65.491)" fill="#707070" font-size="14" font-family="Quicksand-Bold, Quicksand" font-weight="700"><tspan x="0" y="0">LOGO</tspan></text>
    </g>
  </g>
</svg>
