<svg xmlns="http://www.w3.org/2000/svg" xmlns:xlink="http://www.w3.org/1999/xlink" width="44" height="44" viewBox="0 0 44 44">
  <defs>
    <clipPath id="clip-path">
      <circle id="Elipse_71" data-name="Elipse 71" cx="22" cy="22" r="22" transform="translate(23 552)" fill="#fff" stroke="#1558d6" stroke-width="1"/>
    </clipPath>
    <clipPath id="clip-path-2">
      <ellipse id="Elipse_49" data-name="Elipse 49" cx="26" cy="25" rx="26" ry="25" transform="translate(0 0)" fill="#1558d6" stroke="#1558d6" stroke-width="1"/>
    </clipPath>
  </defs>
  <g id="Enmascarar_grupo_53" data-name="Enmascarar grupo 53" transform="translate(-23 -552)" clip-path="url(#clip-path)">
    <g id="Grupo_407" data-name="Grupo 407" transform="translate(19 548)">
      <g id="Elipse_52" data-name="Elipse 52" transform="translate(4 4)" fill="#1558d6" stroke="#1558d6" stroke-width="1">
        <circle cx="22" cy="22" r="22" stroke="none"/>
        <circle cx="22" cy="22" r="21.5" fill="none"/>
      </g>
      <g id="Enmascarar_grupo_43" data-name="Enmascarar grupo 43" transform="translate(0 0)" clip-path="url(#clip-path-2)">
        <path id="hombre" d="M32.459,29.771v3.312a.561.561,0,1,1-1.121,0V29.771a4.663,4.663,0,0,0-4.666-4.666,3.442,3.442,0,0,1-2.962-1.663.561.561,0,0,1,.958-.583,2.329,2.329,0,0,0,2,1.125A5.784,5.784,0,0,1,32.459,29.771ZM22.008,23.722a4.246,4.246,0,0,1-3.31-.653,3.431,3.431,0,0,0,.293-1.145A7.507,7.507,0,0,0,28.6,14.73c0-4.755.006-4.679-.013-4.874a.561.561,0,1,0-1.116.11c.013.127.008.238.008,4.764a6.378,6.378,0,0,1-12.755,0c0-1.263-.013-2.241-.018-2.975a2.853,2.853,0,0,1,3.532-2.8c2.6.623,3.643,2.242,6.972,2.087a.561.561,0,1,0-.053-1.12c-3,.141-3.832-1.38-6.658-2.058a3.974,3.974,0,0,0-4.914,3.894c0,.6.012,1.249.016,2.053a1.158,1.158,0,0,1-.629-1.025c0-.013,0-2.912,0-2.925A9.152,9.152,0,0,1,15.411,3.2C17.962.743,21.952.742,25.055,1.824l-.448.184a.561.561,0,0,0,.154,1.076l.986.106a6.477,6.477,0,0,1,4.649,2.729,4.772,4.772,0,0,0-1.089,3.048v3.824a.561.561,0,1,0,1.121,0V8.966a3.661,3.661,0,0,1,1.06-2.586.6.6,0,0,0,.081-.718,7.569,7.569,0,0,0-4.68-3.41.561.561,0,0,0-.109-.928A13.289,13.289,0,0,0,20.611.008c-5.6.217-8.874,4.4-8.756,9.876v2.906a2.288,2.288,0,0,0,1.758,2.216A7.51,7.51,0,0,0,17.882,21.5v.148a2.337,2.337,0,0,1-2.343,2.337,5.783,5.783,0,0,0-5.787,5.787v3.312a.561.561,0,1,0,1.121,0V29.771a4.663,4.663,0,0,1,4.666-4.666A3.442,3.442,0,0,0,18.076,24a5.366,5.366,0,0,0,4.171.816.561.561,0,0,0-.239-1.1Zm4.774,7.048H25.1a.561.561,0,1,0,0,1.121h1.682a.561.561,0,1,0,0-1.121Z" transform="translate(5.754 8.587)" fill="#fff"/>
      </g>
    </g>
  </g>
</svg>
