<svg xmlns="http://www.w3.org/2000/svg" xmlns:xlink="http://www.w3.org/1999/xlink" width="44" height="44" viewBox="0 0 44 44">
  <defs>
    <clipPath id="clip-path">
      <circle id="Elipse_73" data-name="Elipse 73" cx="22" cy="22" r="22" transform="translate(143 553)" fill="#fff" stroke="#1558d6" stroke-width="1"/>
    </clipPath>
    <clipPath id="clip-path-2">
      <circle id="Elipse_65" data-name="Elipse 65" cx="23" cy="23" r="23" transform="translate(174 591)" fill="#fff" stroke="#1558d6" stroke-width="1"/>
    </clipPath>
  </defs>
  <g id="Enmascarar_grupo_55" data-name="Enmascarar grupo 55" transform="translate(-143 -553)" clip-path="url(#clip-path)">
    <g id="Elipse_55" data-name="Elipse 55" transform="translate(143 553)" fill="#1558d6" stroke="#1558d6" stroke-width="1">
      <circle cx="22" cy="22" r="22" stroke="none"/>
      <circle cx="22" cy="22" r="21.5" fill="none"/>
    </g>
    <g id="Enmascarar_grupo_47" data-name="Enmascarar grupo 47" transform="translate(-32 -38)" clip-path="url(#clip-path-2)">
      <g id="publicidad-digital" transform="translate(185.756 599.22)">
        <g id="Grupo_433" data-name="Grupo 433" transform="translate(6.697 1.848)">
          <g id="Grupo_432" data-name="Grupo 432">
            <path id="Trazado_334" data-name="Trazado 334" d="M16.513,3.254H12.356a.577.577,0,0,0,0,1.155h4.157a.577.577,0,0,0,0-1.155Z" transform="translate(-11.779 -3.254)" fill="#fff"/>
          </g>
        </g>
        <g id="Grupo_435" data-name="Grupo 435" transform="translate(8.776 26.198)">
          <g id="Grupo_434" data-name="Grupo 434">
            <path id="Trazado_335" data-name="Trazado 335" d="M16.42,46.25a.577.577,0,1,0,.169.408A.581.581,0,0,0,16.42,46.25Z" transform="translate(-15.435 -46.081)" fill="#fff"/>
          </g>
        </g>
        <g id="Grupo_437" data-name="Grupo 437" transform="translate(0 0)">
          <g id="Grupo_436" data-name="Grupo 436">
            <path id="Trazado_336" data-name="Trazado 336" d="M25.849,18.357l-2.124-3.679a2.6,2.6,0,0,0-2.537-4.395L19.064,6.605a.577.577,0,0,0-.955-.067L11.5,14.982l-2.775,1.6a3.316,3.316,0,1,0,3.316,5.743l.33-.191,1.153,2H1.155V4.854h16.4v.173a.577.577,0,1,0,1.155,0V2.271A2.269,2.269,0,0,0,16.439,0H2.267A2.269,2.269,0,0,0,0,2.271V27.3a2.269,2.269,0,0,0,2.267,2.267H16.44A2.269,2.269,0,0,0,18.706,27.3V20.173l6.724-.956a.577.577,0,0,0,.419-.86ZM1.155,2.271A1.113,1.113,0,0,1,2.267,1.159H16.439a1.113,1.113,0,0,1,1.112,1.112V3.7H1.155Zm21.176,9.1a1.447,1.447,0,0,1,.789,2.259l-1.327-2.3A1.445,1.445,0,0,1,22.331,11.372Zm-10.87,9.956A2.161,2.161,0,0,1,9.3,17.584l2.372-1.369,2.161,3.744Zm1.908.232,1.041-.6,1.364,2.362-1.041.6ZM17.551,27.3a1.113,1.113,0,0,1-1.112,1.112H2.267A1.113,1.113,0,0,1,1.155,27.3V25.288h16.4V27.3Zm0-3.165h-.876l.175-.1a.577.577,0,0,0,.211-.789l-1.513-2.621,2-.285Zm-2.625-4.589-2.349-4.069,4.2-5.362,4.892,8.473ZM22.9,18.411,17.544,9.132l.947-1.21,5.93,10.272Z" transform="translate(0 -0.005)" fill="#fff"/>
          </g>
        </g>
        <g id="Grupo_439" data-name="Grupo 439" transform="translate(25.58 8.148)">
          <g id="Grupo_438" data-name="Grupo 438">
            <path id="Trazado_337" data-name="Trazado 337" d="M48.9,14.623a.577.577,0,0,0-.789-.211l-2.831,1.634a.577.577,0,1,0,.577,1l2.831-1.634A.577.577,0,0,0,48.9,14.623Z" transform="translate(-44.99 -14.334)" fill="#fff"/>
          </g>
        </g>
        <g id="Grupo_441" data-name="Grupo 441" transform="translate(23.123 5.882)">
          <g id="Grupo_440" data-name="Grupo 440">
            <path id="Trazado_338" data-name="Trazado 338" d="M41.808,10.369a.577.577,0,0,0-.707.408l-.413,1.54a.577.577,0,1,0,1.115.3l.413-1.54A.577.577,0,0,0,41.808,10.369Z" transform="translate(-40.669 -10.349)" fill="#fff"/>
          </g>
        </g>
        <g id="Grupo_443" data-name="Grupo 443" transform="translate(26.353 13.008)">
          <g id="Grupo_442" data-name="Grupo 442">
            <path id="Trazado_339" data-name="Trazado 339" d="M48.669,23.329,47.077,22.9a.577.577,0,0,0-.3,1.115l1.592.427a.577.577,0,0,0,.3-1.115Z" transform="translate(-46.35 -22.883)" fill="#fff"/>
          </g>
        </g>
        <g id="Grupo_445" data-name="Grupo 445" transform="translate(2.406 6.534)">
          <g id="Grupo_444" data-name="Grupo 444">
            <path id="Trazado_340" data-name="Trazado 340" d="M12.776,11.5H4.81a.577.577,0,1,0,0,1.155h7.967a.577.577,0,1,0,0-1.155Z" transform="translate(-4.232 -11.496)" fill="#fff"/>
          </g>
        </g>
        <g id="Grupo_447" data-name="Grupo 447" transform="translate(10.373 9.305)">
          <g id="Grupo_446" data-name="Grupo 446">
            <path id="Trazado_341" data-name="Trazado 341" d="M19.23,16.54a.577.577,0,1,0,.169.408A.579.579,0,0,0,19.23,16.54Z" transform="translate(-18.244 -16.37)" fill="#fff"/>
          </g>
        </g>
        <g id="Grupo_449" data-name="Grupo 449" transform="translate(2.406 9.305)">
          <g id="Grupo_448" data-name="Grupo 448">
            <path id="Trazado_342" data-name="Trazado 342" d="M10.39,16.37H4.81a.577.577,0,1,0,0,1.155h5.58a.577.577,0,1,0,0-1.155Z" transform="translate(-4.232 -16.37)" fill="#fff"/>
          </g>
        </g>
        <g id="Grupo_451" data-name="Grupo 451" transform="translate(4.624 12.076)">
          <g id="Grupo_450" data-name="Grupo 450">
            <path id="Trazado_343" data-name="Trazado 343" d="M13.087,21.244H8.71a.577.577,0,1,0,0,1.155h4.377a.577.577,0,0,0,0-1.155Z" transform="translate(-8.133 -21.244)" fill="#fff"/>
          </g>
        </g>
        <g id="Grupo_453" data-name="Grupo 453" transform="translate(2.401 12.076)">
          <g id="Grupo_452" data-name="Grupo 452">
            <path id="Trazado_344" data-name="Trazado 344" d="M4.828,21.244H4.8a.577.577,0,1,0,0,1.155h.027a.577.577,0,1,0,0-1.155Z" transform="translate(-4.224 -21.244)" fill="#fff"/>
          </g>
        </g>
      </g>
    </g>
  </g>
</svg>
