<svg xmlns="http://www.w3.org/2000/svg" xmlns:xlink="http://www.w3.org/1999/xlink" width="44" height="44" viewBox="0 0 44 44">
  <defs>
    <clipPath id="clip-path">
      <circle id="Elipse_64" data-name="Elipse 64" cx="22" cy="22" r="22" transform="translate(0.261 0.317)" fill="#fff" stroke="#1558d6" stroke-width="1"/>
    </clipPath>
  </defs>
  <g id="Grupo_480" data-name="Grupo 480" transform="translate(-143 -552)">
    <g id="Elipse_55" data-name="Elipse 55" transform="translate(143 552)" fill="#fff" stroke="#1558d6" stroke-width="1">
      <circle cx="22" cy="22" r="22" stroke="none"/>
      <circle cx="22" cy="22" r="21.5" fill="none"/>
    </g>
    <g id="Enmascarar_grupo_46" data-name="Enmascarar grupo 46" transform="translate(142.739 551.683)" clip-path="url(#clip-path)">
      <g id="publicidad-digital" transform="translate(11.651 7.828)">
        <g id="Grupo_411" data-name="Grupo 411" transform="translate(6.35 1.752)">
          <g id="Grupo_410" data-name="Grupo 410">
            <path id="Trazado_323" data-name="Trazado 323" d="M16.268,3.254H12.327a.547.547,0,1,0,0,1.095h3.942a.547.547,0,0,0,0-1.095Z" transform="translate(-11.779 -3.254)" fill="#1558d6"/>
          </g>
        </g>
        <g id="Grupo_413" data-name="Grupo 413" transform="translate(8.321 24.841)">
          <g id="Grupo_412" data-name="Grupo 412">
            <path id="Trazado_324" data-name="Trazado 324" d="M16.369,46.242a.547.547,0,1,0,.16.387A.551.551,0,0,0,16.369,46.242Z" transform="translate(-15.435 -46.081)" fill="#1558d6"/>
          </g>
        </g>
        <g id="Grupo_415" data-name="Grupo 415" transform="translate(0 0)">
          <g id="Grupo_414" data-name="Grupo 414">
            <path id="Trazado_325" data-name="Trazado 325" d="M24.51,17.407,22.5,13.918A2.467,2.467,0,0,0,20.09,9.751L18.076,6.263a.547.547,0,0,0-.905-.064L10.9,14.206,8.27,15.725a3.144,3.144,0,1,0,3.144,5.446l.313-.181,1.093,1.893H1.095V4.6H16.642v.164a.547.547,0,0,0,1.095,0V2.154A2.152,2.152,0,0,0,15.588,0H2.149A2.152,2.152,0,0,0,0,2.154V25.885a2.152,2.152,0,0,0,2.149,2.149H15.588a2.152,2.152,0,0,0,2.149-2.149V19.129l6.376-.906a.547.547,0,0,0,.4-.816ZM1.095,2.154A1.056,1.056,0,0,1,2.149,1.1H15.588a1.056,1.056,0,0,1,1.054,1.054V3.508H1.095Zm20.08,8.629a1.372,1.372,0,0,1,.748,2.142l-1.259-2.18A1.37,1.37,0,0,1,21.174,10.783Zm-10.307,9.44a2.049,2.049,0,0,1-2.049-3.55l2.249-1.3,2.049,3.55Zm1.809.22.987-.57,1.293,2.24-.987.57Zm3.966,5.442a1.056,1.056,0,0,1-1.054,1.054H2.149a1.056,1.056,0,0,1-1.054-1.054V23.978H16.643v1.906Zm0-3h-.83l.166-.1a.547.547,0,0,0,.2-.748l-1.435-2.485,1.9-.27Zm-2.489-4.351-2.228-3.859,3.982-5.085,4.639,8.035Zm7.561-1.075-5.079-8.8.9-1.147,5.623,9.74Z" transform="translate(0 -0.005)" fill="#1558d6"/>
          </g>
        </g>
        <g id="Grupo_417" data-name="Grupo 417" transform="translate(24.255 7.726)">
          <g id="Grupo_416" data-name="Grupo 416">
            <path id="Trazado_326" data-name="Trazado 326" d="M48.7,14.608a.547.547,0,0,0-.748-.2l-2.684,1.55a.547.547,0,1,0,.547.948l2.684-1.55A.547.547,0,0,0,48.7,14.608Z" transform="translate(-44.99 -14.334)" fill="#1558d6"/>
          </g>
        </g>
        <g id="Grupo_419" data-name="Grupo 419" transform="translate(21.926 5.577)">
          <g id="Grupo_418" data-name="Grupo 418">
            <path id="Trazado_327" data-name="Trazado 327" d="M41.749,10.368a.547.547,0,0,0-.67.387l-.391,1.461a.547.547,0,1,0,1.058.283l.391-1.461A.547.547,0,0,0,41.749,10.368Z" transform="translate(-40.669 -10.349)" fill="#1558d6"/>
          </g>
        </g>
        <g id="Grupo_421" data-name="Grupo 421" transform="translate(24.989 12.334)">
          <g id="Grupo_420" data-name="Grupo 420">
            <path id="Trazado_328" data-name="Trazado 328" d="M48.549,23.306l-1.509-.4a.547.547,0,0,0-.283,1.058l1.509.4a.547.547,0,0,0,.283-1.058Z" transform="translate(-46.35 -22.883)" fill="#1558d6"/>
          </g>
        </g>
        <g id="Grupo_423" data-name="Grupo 423" transform="translate(2.282 6.195)">
          <g id="Grupo_422" data-name="Grupo 422">
            <path id="Trazado_329" data-name="Trazado 329" d="M12.334,11.5H4.78a.547.547,0,1,0,0,1.095h7.554a.547.547,0,1,0,0-1.095Z" transform="translate(-4.232 -11.496)" fill="#1558d6"/>
          </g>
        </g>
        <g id="Grupo_425" data-name="Grupo 425" transform="translate(9.836 8.823)">
          <g id="Grupo_424" data-name="Grupo 424">
            <path id="Trazado_330" data-name="Trazado 330" d="M19.179,16.531a.547.547,0,1,0,.16.387A.549.549,0,0,0,19.179,16.531Z" transform="translate(-18.244 -16.37)" fill="#1558d6"/>
          </g>
        </g>
        <g id="Grupo_427" data-name="Grupo 427" transform="translate(2.282 8.823)">
          <g id="Grupo_426" data-name="Grupo 426">
            <path id="Trazado_331" data-name="Trazado 331" d="M10.071,16.37H4.78a.547.547,0,1,0,0,1.095h5.291a.547.547,0,1,0,0-1.095Z" transform="translate(-4.232 -16.37)" fill="#1558d6"/>
          </g>
        </g>
        <g id="Grupo_429" data-name="Grupo 429" transform="translate(4.385 11.451)">
          <g id="Grupo_428" data-name="Grupo 428">
            <path id="Trazado_332" data-name="Trazado 332" d="M12.831,21.244H8.68a.547.547,0,1,0,0,1.095h4.151a.547.547,0,0,0,0-1.095Z" transform="translate(-8.133 -21.244)" fill="#1558d6"/>
          </g>
        </g>
        <g id="Grupo_431" data-name="Grupo 431" transform="translate(2.277 11.451)">
          <g id="Grupo_430" data-name="Grupo 430">
            <path id="Trazado_333" data-name="Trazado 333" d="M4.8,21.244H4.771a.547.547,0,1,0,0,1.095H4.8a.547.547,0,1,0,0-1.095Z" transform="translate(-4.224 -21.244)" fill="#1558d6"/>
          </g>
        </g>
      </g>
    </g>
  </g>
</svg>
