<svg xmlns="http://www.w3.org/2000/svg" xmlns:xlink="http://www.w3.org/1999/xlink" width="44" height="44" viewBox="0 0 44 44">
  <defs>
    <clipPath id="clip-path">
      <circle id="Elipse_75" data-name="Elipse 75" cx="22" cy="22" r="22" transform="translate(263 554)" fill="#fff" stroke="#1558d6" stroke-width="1"/>
    </clipPath>
    <clipPath id="clip-path-2">
      <circle id="Elipse_66" data-name="Elipse 66" cx="22" cy="22" r="22" transform="translate(263 591)" fill="#fff" stroke="#1558d6" stroke-width="1"/>
    </clipPath>
  </defs>
  <g id="Enmascarar_grupo_57" data-name="Enmascarar grupo 57" transform="translate(-263 -554)" clip-path="url(#clip-path)">
    <g id="Elipse_66-2" data-name="Elipse 66" transform="translate(263 554)" fill="#1558d6" stroke="#1558d6" stroke-width="1">
      <circle cx="22" cy="22" r="22" stroke="none"/>
      <circle cx="22" cy="22" r="21.5" fill="none"/>
    </g>
    <g id="Enmascarar_grupo_50" data-name="Enmascarar grupo 50" transform="translate(1 -37)" clip-path="url(#clip-path-2)">
      <g id="testimonial" transform="translate(263 591)">
        <g id="Grupo_455" data-name="Grupo 455" transform="translate(9.228 5.813)">
          <g id="Grupo_454" data-name="Grupo 454" transform="translate(0 0)">
            <path id="Trazado_348" data-name="Trazado 348" d="M9.058,4.53H7.907c.173-1.281.881-1.346,1.208-1.375a.632.632,0,0,0,.575-.63V.633A.632.632,0,0,0,9.022,0c-2,.112-4.381,1.122-4.381,5.291v3.29a1,1,0,0,0,1,1H9.058a1,1,0,0,0,1-1V5.526A1,1,0,0,0,9.058,4.53ZM8.789,8.314H5.905V5.292c0-2.909,1.294-3.722,2.52-3.951v.665C7.578,2.264,6.6,3.025,6.6,5.162a.632.632,0,0,0,.632.632H8.789Z" transform="translate(-4.641 0)" fill="#fff"/>
          </g>
        </g>
        <g id="Grupo_457" data-name="Grupo 457" transform="translate(15.692 5.813)">
          <g id="Grupo_456" data-name="Grupo 456" transform="translate(0 0)">
            <path id="Trazado_349" data-name="Trazado 349" d="M17.843,4.53H16.693c.173-1.281.881-1.346,1.208-1.375a.632.632,0,0,0,.575-.63V.633A.632.632,0,0,0,17.808,0c-2,.112-4.381,1.122-4.381,5.291v3.29a1,1,0,0,0,1,1h3.421a1,1,0,0,0,1-1V5.526A1,1,0,0,0,17.843,4.53Zm-.268,3.784H14.691V5.292c0-2.909,1.294-3.722,2.52-3.951v.665c-.847.258-1.821,1.019-1.821,3.156a.632.632,0,0,0,.632.632h1.553v2.52Z" transform="translate(-13.426 0)" fill="#fff"/>
          </g>
        </g>
        <g id="Grupo_459" data-name="Grupo 459" transform="translate(22.759 10.736)">
          <g id="Grupo_458" data-name="Grupo 458" transform="translate(0 0)">
            <path id="Trazado_350" data-name="Trazado 350" d="M24.111,6.877a.632.632,0,1,0,.185.447A.637.637,0,0,0,24.111,6.877Z" transform="translate(-23.031 -6.692)" fill="#fff"/>
          </g>
        </g>
        <g id="Grupo_461" data-name="Grupo 461" transform="translate(5.813 10.736)">
          <g id="Grupo_460" data-name="Grupo 460" transform="translate(0 0)">
            <path id="Trazado_351" data-name="Trazado 351" d="M21.136,6.691h-.8a.632.632,0,1,0,0,1.265h.8A9.974,9.974,0,0,1,23.194,27.69a.632.632,0,0,0-.5.619v3.674L18.8,28.088a.632.632,0,0,0-.447-.185H11.238A9.976,9.976,0,0,1,2.516,13.089a.632.632,0,0,0-1.105-.615,11.241,11.241,0,0,0,9.827,16.693h6.849l4.789,4.789a.632.632,0,0,0,1.079-.447v-4.7a11.239,11.239,0,0,0-2.82-22.118Z" transform="translate(0 -6.691)" fill="#fff"/>
          </g>
        </g>
        <g id="Grupo_463" data-name="Grupo 463" transform="translate(13.586 17.036)">
          <g id="Grupo_462" data-name="Grupo 462" transform="translate(0 0)">
            <path id="Trazado_352" data-name="Trazado 352" d="M26.76,15.253H11.2a.632.632,0,1,0,0,1.265H26.76a.632.632,0,1,0,0-1.265Z" transform="translate(-10.565 -15.253)" fill="#fff"/>
          </g>
        </g>
        <g id="Grupo_465" data-name="Grupo 465" transform="translate(13.586 20.408)">
          <g id="Grupo_464" data-name="Grupo 464" transform="translate(0 0)">
            <path id="Trazado_353" data-name="Trazado 353" d="M26.76,19.837H11.2a.632.632,0,1,0,0,1.265H26.76a.632.632,0,1,0,0-1.265Z" transform="translate(-10.565 -19.837)" fill="#fff"/>
          </g>
        </g>
        <g id="Grupo_467" data-name="Grupo 467" transform="translate(13.586 23.78)">
          <g id="Grupo_466" data-name="Grupo 466" transform="translate(0 0)">
            <path id="Trazado_354" data-name="Trazado 354" d="M26.76,24.42H11.2a.632.632,0,1,0,0,1.265H26.76a.632.632,0,1,0,0-1.265Z" transform="translate(-10.565 -24.42)" fill="#fff"/>
          </g>
        </g>
        <g id="Grupo_469" data-name="Grupo 469" transform="translate(20.854 27.153)">
          <g id="Grupo_468" data-name="Grupo 468" transform="translate(0 0)">
            <path id="Trazado_355" data-name="Trazado 355" d="M29.37,29h-8.3a.632.632,0,1,0,0,1.265h8.3a.632.632,0,1,0,0-1.265Z" transform="translate(-20.442 -29.003)" fill="#fff"/>
          </g>
        </g>
        <g id="Grupo_471" data-name="Grupo 471" transform="translate(17.286 27.153)">
          <g id="Grupo_470" data-name="Grupo 470" transform="translate(0 0)">
            <path id="Trazado_356" data-name="Trazado 356" d="M16.235,29h-.01a.632.632,0,1,0,0,1.265h.01a.632.632,0,1,0,0-1.265Z" transform="translate(-15.593 -29.003)" fill="#fff"/>
          </g>
        </g>
      </g>
    </g>
  </g>
</svg>
